<svg width="248" height="244" viewBox="0 0 248 244" fill="none" xmlns="http://www.w3.org/2000/svg">
<path d="M79.9592 10.844C84.3182 7.79536 87.5808 3.50323 91.5386 0C93.0763 1.21677 94.6808 2.38006 96.0046 3.85088C94.9616 19.9363 84.1043 33.2272 72.7388 43.7369C62.6838 52.388 52.281 61.3868 46.2774 73.4742C42.2126 81.3899 43.2021 90.8433 45.8094 99.0532C50.1684 112.892 56.8272 126.156 66.1736 137.321C69.2356 141.132 73.4609 143.98 75.9613 148.245C77.8733 154.089 71.5354 157.017 67.7915 159.905C72.9394 165.481 79.4645 169.492 84.8531 174.8C86.5111 176.138 86.6314 178.317 87.0593 180.243L85.9896 179.347C76.2822 169.679 62.9512 162.833 57.6027 149.542C60.3305 152.177 62.9111 154.958 65.4783 157.752C68.3799 155.934 71.5221 154.303 73.755 151.642C73.9556 148.326 70.8803 146.173 69.0083 143.846C56.5999 131.438 48.39 115.366 43.2957 98.7055C40.4342 89.6399 40.1534 79.3308 44.9403 70.8535C55.0087 51.2515 76.6566 41.4237 87.5139 22.4367C90.9904 16.8209 92.9025 10.4027 93.6513 3.86425C88.8377 10.1487 85.7489 17.5696 80.6278 23.6267C73.2202 32.4784 63.5395 39.3111 52.9897 43.9241C46.7454 46.6785 40.1936 49.5533 35.8346 55.0355C29.5769 62.7372 27.9055 73.0597 27.6113 82.7003C27.2771 92.3008 33.4545 100.377 34.9253 109.63C37.0112 119.351 33.2539 129.432 36.3694 139.006C39.4314 149.355 47.0396 157.445 54.8884 164.478C51.091 170.361 46.8925 176.151 44.606 182.837C43.2957 186.594 44.3119 190.592 44.82 194.403C47.4407 190.752 49.5934 186.808 51.7596 182.877C50.8503 188.345 49.1388 193.614 47.0262 198.721C48.711 199.042 50.3823 199.47 52.1072 199.55C56.7604 194.403 57.8033 187.249 60.3973 181.031C61.2798 188.827 58.6056 196.234 54.6745 202.84C57.2551 202.653 60.063 203.201 62.4698 202.091C66.08 199.403 68.3531 195.178 69.3292 190.846C70.4657 185.283 68.4601 179.788 67.0026 174.48C69.2891 179.173 72.4179 183.986 71.8296 189.442C71.1343 196.181 67.0695 201.81 63.5796 207.373C66.5346 212.186 71.4686 214.887 76.6833 216.585C78.114 217.16 78.9163 218.604 79.9994 219.634C75.0119 219.166 69.8106 218.323 65.5987 215.422C62.55 213.376 61.4001 209.712 59.9293 206.544C54.7681 205.795 49.1656 204.792 45.3682 200.874C41.7981 197.518 40.7284 192.544 39.632 187.971C28.8014 186.714 17.6231 180.697 13.6519 170.027C10.5765 162.579 12.8095 154.436 15.6977 147.31C11.1114 144.903 10.6033 139.487 7.67502 135.703C5.26822 132.454 6.81927 127.761 3.95785 124.672C1.41734 121.931 2.95502 118.174 2.88816 114.885C2.13938 112.959 0.96272 111.208 0 109.389C0.829009 106.915 1.8051 104.482 2.5004 101.968C2.87479 99.334 1.81847 96.6464 2.44691 94.0123C3.50323 91.2445 5.4153 88.9179 6.49836 86.1634C7.05995 81.0156 6.12397 75.734 7.52794 70.6529C8.94527 63.3122 12.8898 56.8807 16.9546 50.73C20.1235 45.9966 21.0194 40.3005 22.8379 35.0056C25.2981 35.6073 27.7451 36.2491 30.2053 36.8775C30.3123 34.0027 30.3925 31.1279 30.6198 28.2665C33.4278 28.2933 36.2223 28.4938 39.0169 28.8014C39.6988 27.1701 40.3005 25.4853 41.2231 23.961C43.67 23.8407 46.117 24.2552 48.5505 24.5627C48.9115 22.1292 49.2458 19.709 49.6202 17.2888C53.4176 16.9145 56.8673 18.3184 59.6619 20.8322C66.5881 17.8504 73.7818 15.2564 79.9592 10.844ZM58.151 24.9104C56.3726 23.1186 54.5942 21.3403 52.7624 19.6154C51.5189 23.7337 50.0882 27.7852 48.3633 31.7296C47.3471 30.1251 46.3175 28.5339 45.3013 26.9428C44.7932 26.916 43.7904 26.8492 43.2957 26.8224C42.1591 30.7669 40.7819 34.6178 39.2843 38.4286C38.3216 35.3265 36.7839 32.4651 34.3236 30.2856C33.0668 36.7572 31.4355 43.309 27.1032 48.497C27.8253 45.3147 30.4861 39.0837 25.2045 38.7094C23.4663 42.9079 22.3565 47.3738 20.07 51.3317C17.1418 56.4662 13.4915 61.2798 11.6596 66.9759C9.73417 72.4179 9.82777 78.2745 9.54697 83.9706C9.45338 88.6772 6.55184 92.5949 4.65315 96.6999C5.73621 97.5289 6.81927 98.3579 7.90233 99.1735C5.52227 103.065 3.1021 107.29 4.01133 112.037C6.1106 111.301 8.19649 110.526 10.2824 109.75C7.92907 114.136 4.01133 118.883 6.53847 124.071C8.18312 123.268 9.8144 122.466 11.4457 121.664C9.97485 125.956 8.85167 130.449 9.50686 135.021C11.3654 134.179 13.224 133.31 15.0692 132.427C14.4007 135.73 13.7054 139.073 13.799 142.469C15.8982 142.509 17.9841 142.362 20.0567 142.255C17.9574 151.08 13.1171 160.279 16.6738 169.425C20.5915 179.106 30.9942 183.879 40.7953 185.176C43.1619 178.183 46.6518 171.698 50.1951 165.254C45.0205 158.033 37.6932 152.19 34.6044 143.539C28.9351 131.959 34.4841 118.909 31.0611 106.902C29.0019 98.7456 23.7203 91.3247 24.2552 82.6067C24.8569 71.6023 26.9027 59.6351 34.9655 51.4788C42.1457 43.9375 52.8694 42.0388 61.3065 36.3828C72.0302 29.3897 81.5504 20.2037 88.0621 9.1191C78.8361 15.7378 68.6339 20.645 58.151 24.9104Z" fill="#D2232A"/>
<path d="M152.38 3.82339C153.369 2.04503 155.388 1.25613 156.939 0.0527344C160.536 3.48911 163.678 7.42022 167.703 10.3886C174.014 15.0819 181.489 17.7695 188.669 20.8314C191.464 18.2107 195.007 16.8468 198.858 17.3951C199.125 19.7885 199.366 22.1953 199.62 24.5887C202.214 24.2678 204.821 23.987 207.429 23.7998C207.923 25.4846 208.391 27.1961 208.846 28.9076C211.801 28.5065 214.783 28.2792 217.765 28.2658C217.938 31.0871 218.019 33.9084 218.112 36.7163C220.506 36.2216 222.886 35.5931 225.333 35.2589C226.844 37.9197 227.178 41.0218 228.154 43.8966C230.347 50.8496 235.695 56.2114 238.329 62.9772C241.258 69.5558 241.98 76.8297 241.672 83.9698C241.365 88.877 246.94 92.1128 246.058 97.127C245.002 101.312 247.208 105.123 247.769 109.174C246.927 112.357 244.841 115.258 245.75 118.708C246.472 121.596 244.868 124.03 243.344 126.303C241.325 129.057 243.076 133.028 240.709 135.609C237.38 139.233 237.38 145.009 232.5 147.282C235.508 154.302 237.581 162.378 234.733 169.812C230.801 180.563 219.61 186.74 208.699 187.957C207.509 192.784 206.279 198.052 202.321 201.435C198.537 204.885 193.322 205.794 188.428 206.516C186.958 209.672 185.754 213.242 182.786 215.328C178.547 218.416 173.172 218.978 168.158 219.901C169.776 217.841 171.407 215.782 173.185 213.843C173.212 214.458 173.279 215.689 173.306 216.29C178.066 214.699 181.903 211.383 184.751 207.318C181.355 201.983 177.397 196.621 176.488 190.19C175.86 185.109 178.373 180.389 180.112 175.762C178.44 183.651 177.157 192.958 183.093 199.483C185.286 203.334 189.899 202.839 193.67 202.839C189.351 195.913 186.77 187.93 188.308 179.707C190.18 187.128 191.985 194.79 196.932 200.873C198.283 199.804 199.647 198.721 200.997 197.651C199.179 193.305 197.641 188.839 196.478 184.28C198.791 187.649 201.051 191.059 203.618 194.241C204.059 190.551 204.995 186.673 203.765 183.036C201.465 176.284 197.267 170.414 193.456 164.451C201.037 157.564 208.498 149.836 211.667 139.848C214.983 129.993 211.306 119.51 213.419 109.495C214.863 100.242 221.134 92.2064 220.746 82.606C220.466 73.313 218.794 63.4853 213.152 55.837C208.833 49.9403 201.987 46.8382 195.488 43.9902C184.016 39.0563 173.6 31.4214 165.978 21.4733C161.74 16.0045 158.785 9.70668 154.854 4.02395C155.255 10.5892 157.314 16.9939 160.817 22.5563C171.888 41.784 194.058 51.6652 203.845 71.8556C208.391 80.3864 207.669 90.5484 204.755 99.4803C199.74 115.499 191.905 130.996 180.018 143.03C177.892 145.624 174.603 148.004 174.589 151.668C176.849 154.195 179.764 156.027 182.478 158.032C185.727 154.395 188.87 150.665 192.025 146.948C186.891 161.415 172.958 169.157 162.368 179.172C162.007 179.466 161.298 180.055 160.937 180.349C161.566 178.049 162.248 175.602 164.187 174.038C169.482 169.117 175.753 165.28 180.352 159.624C176.461 156.989 170.458 153.914 172.37 148.151C174.563 144.434 178.213 141.92 180.954 138.644C191.45 126.61 198.711 111.996 203.137 96.7125C205.61 88.5561 205.624 79.2632 201.144 71.7754C191.811 54.0586 172.878 44.6855 161.753 28.3995C156.685 21.1925 152.5 12.7954 152.38 3.82339ZM160.71 9.76016C169.575 24.5887 183.615 36.2617 199.593 42.7601C205.824 45.3273 211.828 48.9509 215.879 54.4598C221.99 62.4557 223.394 72.8317 223.996 82.5792C224.597 92.407 217.925 100.577 216.575 110.043C214.863 119.804 218.152 129.9 215.131 139.5C212.149 149.542 205.196 157.765 197.534 164.624C201.666 171.083 204.808 178.089 207.603 185.216C217.404 183.865 227.739 179.012 231.671 169.331C235.321 160.132 230.106 150.959 228.248 142.027C230.414 142.254 232.58 142.468 234.746 142.656C234.305 138.243 233.422 133.871 231.938 129.686C233.85 131.665 235.548 134.312 238.503 134.753C240.482 129.819 237.527 124.912 235.963 120.313C237.875 121.663 239.8 123 241.752 124.297C244.56 118.481 239.814 113.279 237.006 108.559C239.386 109.188 243.277 113.707 244.681 110.204C244.895 106.139 242.18 102.689 240.469 99.1861C241.552 98.3972 242.622 97.6084 243.691 96.8195C242.06 93.3563 239.907 90.0671 238.971 86.3231C237.888 80.3061 238.878 74.0217 236.979 68.1384C235.241 62.0145 231.403 56.8532 228.301 51.3978C226.028 47.4801 224.945 43.0542 223.193 38.9226C218.754 38.1203 220.051 44.5384 219.971 47.2661C216.789 41.9712 215.117 36.021 213.299 30.1778C209.755 33.0393 210.397 37.318 211.199 41.2491C208.325 36.5158 206.011 31.4748 204.34 26.1933C202.829 27.9582 201.358 29.75 199.887 31.5551C198.122 27.7042 196.625 23.7463 195.208 19.7484C193.55 21.4599 191.932 23.1981 190.327 24.9497C179.964 20.8716 170.07 15.8039 160.71 9.76016Z" fill="#D2232A"/>
<path d="M115.955 55.676C113.561 47.9208 116.784 40.0184 119.872 32.9585C119.939 38.8685 119.137 45.1663 122.279 50.5148C125.528 56.1707 126.625 62.8162 130.248 68.2582C133.899 63.5115 130.516 58.163 129.286 53.2291C128.056 49.5654 127.922 45.6744 127.935 41.8503C131.291 48.0144 133.778 54.6063 136.854 60.9175C139.956 67.2287 136.078 73.7939 135.209 80.105C134.674 83.0199 136.867 85.3599 138.177 87.7266C143.847 85.4668 144.395 79.3563 144.596 74.0479C149.81 78.7412 149.048 86.229 147.912 92.4733C146.08 97.688 141.239 101.927 142.791 107.97C144.93 108.305 147.096 108.559 149.249 108.799C150.693 105.149 150.8 101.258 150.8 97.3939C150.706 94.4121 153.514 92.6338 155.145 90.5211C154.704 95.9097 154.504 101.325 155.159 106.7C155.734 111.046 154.29 115.365 154.771 119.697C156.335 124.791 161.457 128.963 160.133 134.739C158.502 141.412 151.201 144.621 149.342 151.159C148.152 155.063 148.406 159.877 144.85 162.618C141.36 166.095 136.279 166.282 131.733 167.111C128.269 167.392 126.652 170.868 124.606 173.168C122.279 170.801 120.461 167.218 116.757 166.991C112.278 166.282 107.263 165.948 104.041 162.311C100.23 159.128 101.14 153.66 99.1873 149.514C96.8206 143.912 90.1485 140.85 89.3729 134.485C88.584 129.805 91.4053 125.727 92.8895 121.529C96.2323 113.265 95.4969 104.053 93.4244 95.5754C91.6193 87.7934 92.0739 78.9819 97.1549 72.4701C96.5131 77.4576 94.7214 83.3542 98.4118 87.6196C101.153 90.949 103.386 94.6528 105.124 98.6106C105.726 100.991 108.587 100.429 110.406 101.058C113.468 89.0637 101.327 79.851 102.597 68.0309C102.744 64.0864 105.726 61.1715 108.092 58.3369C108.4 62.9232 107.157 67.7501 108.761 72.176C109.804 75.1711 113.08 76.0402 115.674 77.2436C121.276 70.9325 117.813 62.7092 115.955 55.676ZM124.151 113.707C119.658 120.633 119.391 129.043 120.608 136.959C116.597 135.034 112.211 135.02 108.534 137.668C112.478 139.152 116.623 140.77 118.829 144.634C115.313 144.647 111.77 144.607 108.32 145.316C108.186 146.118 107.905 147.709 107.772 148.498C114.323 148.538 120.447 151.386 124.78 156.267C129.112 150.771 135.958 148.685 142.697 148.217C139.983 143.965 135.022 144.433 130.583 144.554C132.535 141.131 136.092 139.633 139.555 138.243C138.552 133.576 132.241 135.863 129.045 136.718C129.887 128.896 130.382 119.59 124.151 113.707Z" fill="#D2232A"/>
<path d="M13.1858 78.8357C13.0654 71.7223 15.5792 64.903 19.8045 59.2471C17.4913 65.7454 15.6728 72.4042 13.1858 78.8357Z" fill="#D2232A"/>
<path d="M224.262 59.7153C228.554 65.6922 231.402 72.7388 231.282 80.1999C228.594 73.4876 226.842 66.4677 224.262 59.7153Z" fill="#D2232A"/>
<path d="M228.646 59.2612C232.724 64.8771 235.492 71.6429 234.81 78.7028C232.924 72.1643 230.812 65.7061 228.646 59.2612Z" fill="#D2232A"/>
<path d="M17.0645 80.0928C17.2249 73.3136 19.1905 66.6548 23.0012 61.0122C21.4101 67.4838 19.4178 73.8618 17.0645 80.0928Z" fill="#D2232A"/>
<path d="M27.5596 166.672C24.7116 162.219 24.9522 156.75 25.8882 151.776C26.9312 156.095 27.4259 160.615 29.3246 164.693C31.5174 169.105 35.7828 171.86 39.2459 175.189C34.5928 173.651 29.8862 171.218 27.5596 166.672Z" fill="#D2232A"/>
<path d="M222.496 151.855C223.392 156.749 223.566 162.071 220.798 166.456C218.565 171.043 213.885 173.556 209.259 175.174C212.642 171.791 216.84 169.01 219.033 164.638C220.905 160.6 221.426 156.134 222.496 151.855Z" fill="#D2232A"/>
<path d="M22.4502 170.349C19.6556 166.003 19.6288 160.681 20.5247 155.761C21.7682 160.32 22.263 165.201 24.6965 169.346C27.1835 173.076 30.8606 175.764 33.9493 178.973C29.5101 177.101 24.75 174.855 22.4502 170.349Z" fill="#D2232A"/>
<path d="M227.876 155.917C228.879 161.065 228.504 166.654 225.415 171.066C222.835 175.479 217.941 177.471 213.408 179.209C216.751 176.254 220.575 173.714 223.169 170.023C225.857 165.771 226.485 160.65 227.876 155.917Z" fill="#D2232A"/>
<path d="M82.6999 188.88C90.4952 177.822 108.707 177.381 117.024 188.078C119.457 191.487 123.629 196.675 119.698 200.446C116.917 194.322 113.748 187.382 106.875 184.989C97.4081 180.71 85.5346 186.968 82.7266 196.715C78.9693 207.426 88.2489 220.048 99.5609 219.928C106.42 220.569 113.079 216.291 116.154 210.287C117.331 207.894 119.029 205.861 121.623 204.965C120.313 218.724 103.88 227.857 91.5114 221.706C78.9292 216.866 74.3028 199.376 82.6999 188.88Z" fill="#D2232A"/>
<path d="M140.064 182.061C150.667 176.886 164.827 182.342 169.2 193.32C174.027 203.321 168.865 216.197 159.158 221.105C150.681 225.798 139.262 223.552 132.884 216.358C129.942 213.029 127.081 208.683 128.565 204.057C133.071 209.017 135.585 216.251 142.364 218.765C153.689 223.618 167.889 213.951 167.221 201.583C167.555 189.723 154.023 180.162 143.019 184.815C136.628 186.714 132.924 192.624 130.731 198.521C130.29 198.668 129.394 198.962 128.953 199.109C128.538 198.869 127.696 198.401 127.281 198.16C129.019 191.314 133.312 184.789 140.064 182.061Z" fill="#D2232A"/>
<path d="M118.044 201.193C129.931 196.888 146.084 205.699 145.629 219.204C140.909 215.915 139.759 209.47 134.718 206.515C129.183 202.677 121.601 202.463 115.812 205.886C110.209 208.641 108.11 214.872 104.379 219.431C102.347 210.901 110.503 203.386 118.044 201.193Z" fill="#D2232A"/>
<path d="M103.174 225.048C103.602 224.834 104.457 224.406 104.899 224.192C108.322 225.689 107.84 230.744 110.675 233.137C118.029 242.911 134.863 241.507 140.346 230.53C142.004 228.725 141.749 224.326 144.785 224.526C146.817 227.307 144.45 230.57 143.113 233.124C137.391 242.711 123.739 246.348 114.111 240.491C108.322 237.389 104.217 231.519 103.174 225.048Z" fill="#D2232A"/>
<path d="M80.6272 23.6282C85.7483 17.5711 88.837 10.1501 93.6506 3.86572C92.9019 10.4042 90.9898 16.8223 87.5133 22.4382C76.656 41.4252 55.0081 51.2529 44.9397 70.855C40.1528 79.3323 40.4336 89.6414 43.295 98.707C48.3894 115.367 56.5993 131.439 69.0077 143.848C70.8796 146.174 73.955 148.327 73.7544 151.643C71.5215 154.304 68.3792 155.935 65.4777 157.754C62.9105 154.959 60.3298 152.178 57.6021 149.544C62.9506 162.835 76.2816 169.681 85.989 179.348C77.9128 183.694 71.4279 192.037 71.9627 201.558C71.5215 207.04 74.5166 211.8 76.6827 216.587C71.468 214.889 66.534 212.188 63.579 207.374C67.0689 201.812 71.1337 196.182 71.829 189.443C72.4173 183.988 69.2885 179.174 67.002 174.481C68.4595 179.789 70.4651 185.285 69.3286 190.847C68.3525 195.18 66.0794 199.405 62.4692 202.092C60.0624 203.202 57.2545 202.654 54.6739 202.841C58.605 196.236 61.2792 188.828 60.3967 181.033C57.8027 187.251 56.7597 194.404 52.1066 199.552C50.3817 199.472 48.7103 199.044 47.0256 198.723C49.1382 193.615 50.8497 188.347 51.7589 182.878C49.5928 186.809 47.4401 190.754 44.8193 194.404C44.3112 190.593 43.295 186.595 44.6054 182.838C46.8919 176.152 51.0904 170.363 54.8878 164.48C47.0389 157.446 39.4308 149.357 36.3688 139.008C33.2533 129.434 37.0106 119.352 34.9247 109.631C33.4539 100.378 27.2764 92.3023 27.6107 82.7018C27.9049 73.0612 29.5763 62.7387 35.834 55.037C40.1929 49.5548 46.7448 46.68 52.9891 43.9256C63.5389 39.3125 73.2196 32.4799 80.6272 23.6282Z" fill="#FFC30E"/>
<path d="M160.819 22.5607C157.316 16.9983 155.257 10.5935 154.855 4.02832C158.787 9.71104 161.742 16.0088 165.98 21.4776C173.602 31.4257 184.018 39.0606 195.49 43.9946C201.989 46.8426 208.835 49.9447 213.154 55.8414C218.796 63.4896 220.468 73.3174 220.748 82.6103C221.136 92.2108 214.865 100.247 213.421 109.5C211.308 119.515 214.985 129.998 211.669 139.852C208.5 149.84 201.039 157.569 193.458 164.455C197.269 170.418 201.467 176.288 203.767 183.041C204.997 186.678 204.061 190.555 203.62 194.246C201.053 191.063 198.793 187.654 196.48 184.284C197.643 188.844 199.181 193.31 200.999 197.655C199.649 198.725 198.285 199.808 196.934 200.878C191.987 194.794 190.182 187.132 188.31 179.711C186.772 187.935 189.353 195.917 193.672 202.843C189.901 202.843 185.288 203.338 183.095 199.487C177.158 192.962 178.442 183.656 180.113 175.767C178.375 180.393 175.861 185.113 176.49 190.194C177.399 196.626 181.357 201.988 184.753 207.323C181.905 211.387 178.068 214.703 173.308 216.295C173.281 215.693 173.214 214.463 173.187 213.848C175.915 207.617 177.827 200.503 175.139 193.885C173.254 187.319 167.866 182.773 162.37 179.176C172.96 169.162 186.893 161.42 192.027 146.952C188.872 150.669 185.729 154.4 182.48 158.037C179.766 156.031 176.851 154.199 174.591 151.672C174.605 148.008 177.894 145.628 180.02 143.034C191.907 131 199.742 115.503 204.756 99.4847C207.671 90.5528 208.393 80.3907 203.847 71.86C194.06 51.6696 171.89 41.7883 160.819 22.5607Z" fill="#FFC30E"/>
<path d="M58.1509 24.9143C68.6338 20.6489 78.836 15.7417 88.0621 9.12305C81.5503 20.2077 72.0301 29.3937 61.3065 36.3867C52.8693 42.0427 42.1457 43.9414 34.9654 51.4827C26.9026 59.6391 24.8568 71.6062 24.2551 82.6107C23.7203 91.3286 29.0019 98.7496 31.061 106.906C34.484 118.913 28.935 131.963 34.6044 143.543C37.6931 152.194 45.0205 158.037 50.1951 165.258C46.6517 171.702 43.1619 178.187 40.7952 185.18C30.9942 183.883 20.5914 179.11 16.6737 169.429C13.117 160.283 17.9573 151.084 20.0566 142.259C17.9841 142.366 15.8982 142.513 13.7989 142.473C13.7053 139.077 14.4006 135.734 15.0692 132.431C13.224 133.314 11.3654 134.183 9.5068 135.025C8.85161 130.453 9.97479 125.96 11.4456 121.668C9.81433 122.47 8.18306 123.272 6.53841 124.074C4.01127 118.886 7.92901 114.14 10.2823 109.754C8.19643 110.53 6.11054 111.305 4.01127 112.04C3.10204 107.294 5.52221 103.068 7.90227 99.1775C6.81921 98.3618 5.73615 97.5328 4.65309 96.7038C6.55178 92.5989 9.45331 88.6812 9.54691 83.9745C9.82771 78.2784 9.73411 72.4219 11.6595 66.9798C13.4914 61.2838 17.1417 56.4701 20.07 51.3356C22.3564 47.3778 23.4662 42.9118 25.2045 38.7133C30.4861 39.0877 27.8252 45.3186 27.1032 48.501C31.4354 43.313 33.0667 36.7611 34.3236 30.2895C36.7839 32.469 38.3215 35.3304 39.2843 38.4325C40.7818 34.6218 42.159 30.7709 43.2956 26.8264C43.7903 26.8531 44.7932 26.92 45.3013 26.9467C46.3175 28.5379 47.347 30.1291 48.3632 31.7336C50.0881 27.7891 51.5188 23.7377 52.7623 19.6194C54.5942 21.3442 56.3725 23.1226 58.1509 24.9143ZM13.1839 78.84C15.6709 72.4085 17.4893 65.7497 19.8026 59.2513C15.5773 64.9073 13.0635 71.7266 13.1839 78.84ZM17.0615 80.0969C19.4148 73.866 21.4071 67.4879 22.9982 61.0163C19.1875 66.6589 17.2219 73.3177 17.0615 80.0969ZM27.5578 166.675C29.8844 171.221 34.591 173.655 39.2441 175.192C35.781 171.863 31.5156 169.108 29.3228 164.696C27.4241 160.618 26.9294 156.098 25.8864 151.779C24.9504 156.753 24.7097 162.222 27.5578 166.675ZM22.45 170.352C24.7499 174.858 29.51 177.104 33.9492 178.976C30.8605 175.767 27.1834 173.08 24.6964 169.349C22.2628 165.204 21.7681 160.324 20.5246 155.764C19.6287 160.685 19.6555 166.006 22.45 170.352Z" fill="#FFC30E"/>
<path d="M160.704 9.76318C170.064 15.8069 179.959 20.8746 190.321 24.9528C191.926 23.2012 193.544 21.4629 195.202 19.7514C196.619 23.7494 198.116 27.7072 199.881 31.5581C201.352 29.753 202.823 27.9613 204.334 26.1963C206.005 31.4779 208.319 36.5188 211.193 41.2521C210.391 37.321 209.749 33.0423 213.293 30.1809C215.111 36.024 216.783 41.9742 219.965 47.2691C220.045 44.5414 218.748 38.1233 223.187 38.9256C224.939 43.0572 226.022 47.4831 228.295 51.4008C231.397 56.8562 235.235 62.0175 236.973 68.1414C238.872 74.0247 237.882 80.3092 238.965 86.3262C239.901 90.0701 242.054 93.3594 243.685 96.8225C242.616 97.6114 241.546 98.4003 240.463 99.1892C242.174 102.692 244.889 106.142 244.675 110.207C243.271 113.71 239.38 109.191 237 108.562C239.808 113.282 244.554 118.484 241.746 124.3C239.794 123.003 237.869 121.666 235.957 120.316C237.521 124.915 240.476 129.822 238.497 134.756C235.542 134.315 233.844 131.668 231.932 129.689C233.416 133.874 234.299 138.246 234.74 142.659C232.574 142.471 230.408 142.258 228.242 142.03C230.1 150.962 235.315 160.135 231.665 169.334C227.733 179.015 217.398 183.868 207.597 185.219C204.802 178.092 201.66 171.086 197.528 164.627C205.19 157.768 212.143 149.545 215.125 139.503C218.146 129.903 214.857 119.807 216.569 110.047C217.919 100.58 224.591 92.41 223.99 82.5823C223.388 72.8347 221.984 62.4587 215.873 54.4628C211.822 48.9539 205.818 45.3303 199.587 42.7631C183.609 36.2647 169.569 24.5917 160.704 9.76318ZM224.257 59.7177C226.838 66.4701 228.589 73.4899 231.277 80.2022C231.397 72.7411 228.549 65.6945 224.257 59.7177ZM228.643 59.263C230.809 65.7079 232.921 72.1662 234.807 78.7046C235.489 71.6447 232.721 64.8789 228.643 59.263ZM222.492 151.858C221.422 156.137 220.901 160.603 219.029 164.641C216.836 169.013 212.638 171.794 209.255 175.177C213.881 173.559 218.561 171.046 220.794 166.459C223.562 162.074 223.388 156.752 222.492 151.858ZM227.867 155.923C226.477 160.656 225.848 165.777 223.161 170.029C220.567 173.72 216.742 176.26 213.4 179.215C217.932 177.477 222.826 175.485 225.407 171.072C228.496 166.66 228.87 161.071 227.867 155.923Z" fill="#FFC30E"/>
</svg>
